<svg width="24" height="24" viewBox="0 0 24 24" fill="none" xmlns="http://www.w3.org/2000/svg">
<path fill-rule="evenodd" clip-rule="evenodd" d="M1.55879 17.3524C1.06203 17.8497 1.22316 18.4496 2.0421 18.4899L4.37451 18.7856C5.18251 18.887 5.02138 18.9212 5.1178 19.6897L5.36434 21.8157C5.40584 22.6368 6.00509 22.7969 6.50063 22.2996L8.15811 20.6416L9.85462 18.942C9.70693 18.887 9.5556 18.804 9.41889 18.6866L8.21545 15.648L4.54046 14.3675L1.55879 17.3524Z" fill="#FF515D"/>
<path fill-rule="evenodd" clip-rule="evenodd" d="M6.76188 19.6045L5.28015 21.0878L5.36438 21.816C5.40589 22.6371 6.00514 22.7971 6.50068 22.2999L8.15815 20.6419L9.85467 18.9423C9.70698 18.8873 9.55565 18.8042 9.41894 18.6869L8.4596 17.905L6.76188 19.6045Z" fill="#FC2B3A"/>
<path fill-rule="evenodd" clip-rule="evenodd" d="M14.1448 18.9424L15.8425 20.642L17.4988 22.3C17.9955 22.7973 18.5948 22.6372 18.6363 21.8162L18.8816 19.6902C18.978 18.9216 18.8169 18.8874 19.6261 18.786L21.9573 18.4903C22.7775 18.45 22.9374 17.8501 22.4418 17.3528L19.4406 14.3483L15.4299 14.7552L14.1448 18.9424Z" fill="#FF515D"/>
<path fill-rule="evenodd" clip-rule="evenodd" d="M18.2957 15.7119L21.17 18.5905L21.9572 18.4903C22.7774 18.45 22.9373 17.8501 22.4417 17.3528L19.4405 14.3483L17.1642 14.5792L18.2957 15.7119Z" fill="#FC2B3A"/>
<path fill-rule="evenodd" clip-rule="evenodd" d="M12.7834 1.58952L14.0204 2.17546L15.7723 2.28802C16.0211 2.3043 16.5632 2.4874 16.8998 2.96077L17.7244 4.05803L19.2222 4.97627C19.4358 5.10646 19.8319 5.52153 19.9103 6.09933L20.1334 7.45567L21.0364 8.96934C21.1648 9.18499 21.323 9.73703 21.1256 10.2836L20.6957 11.5911L20.7957 13.3517C20.8106 13.6026 20.6957 14.1655 20.2685 14.5588L19.2844 15.5136L18.5584 17.1209C18.4557 17.3488 18.0934 17.795 17.5337 17.9415L16.2197 18.328L14.8355 19.4117C14.6381 19.5663 14.1122 19.7915 13.5472 19.6599L12.2061 19.3887L10.4798 19.7006C10.2338 19.7454 9.66335 19.6993 9.22533 19.3195L8.16277 18.4515L6.4892 17.9211C6.25126 17.8466 5.76865 17.5387 5.55506 16.9975L5.01567 15.7334L3.77873 14.4815C3.603 14.3025 3.31639 13.8047 3.3786 13.2256L3.4854 11.8543L2.96901 10.1684C2.89465 9.92831 2.87168 9.35321 3.19341 8.869L3.92203 7.70525L4.24376 5.9705C4.28973 5.72365 4.53575 5.20415 5.04406 4.92611L6.2269 4.23439L7.31376 2.84955C7.46788 2.65288 7.92613 2.30704 8.50473 2.2989L9.87142 2.2392L11.4747 1.52033C11.702 1.4186 12.267 1.3264 12.7834 1.58952V1.58952Z" fill="#FFE663"/>
<path fill-rule="evenodd" clip-rule="evenodd" d="M12.0714 17.6381C15.9634 17.6381 19.1186 14.4724 19.1186 10.5662C19.1186 6.66132 15.9634 3.49561 12.0714 3.49561C8.17813 3.49561 5.02295 6.66128 5.02295 10.5662C5.02295 14.4724 8.17813 17.6381 12.0714 17.6381Z" fill="#FF8F0C"/>
<path fill-rule="evenodd" clip-rule="evenodd" d="M19.1183 10.566C19.1183 7.37053 17.0054 4.67009 14.1044 3.79523C15.467 5.74968 16.3079 8.43119 16.3079 11.392C16.3079 12.9952 16.0619 14.517 15.6184 15.8856C15.509 16.226 15.3859 16.557 15.2521 16.8784C16.2849 16.3535 17.1717 15.5804 17.8341 14.6377C18.6425 13.4876 19.1183 12.0824 19.1183 10.566Z" fill="#FF7C03"/>
<path fill-rule="evenodd" clip-rule="evenodd" d="M21.1258 10.2836C21.3231 9.73701 21.165 9.18497 21.0366 8.96932L20.1336 7.45565L19.9105 6.09932C19.8321 5.52151 19.436 5.10649 19.2224 4.97625L17.7246 4.05801L16.8999 2.9608C16.5633 2.48742 16.0212 2.30432 15.7725 2.28805L14.0205 2.17548L12.7836 1.58954C12.3915 1.39017 11.9711 1.39421 11.6926 1.45391C12.6011 2.01135 13.4189 2.81025 14.1043 3.79493C17.0053 4.66975 19.1182 7.37023 19.1182 10.5658C19.1182 12.0821 18.6424 13.4873 17.834 14.6374C17.1716 15.5801 16.2848 16.3532 15.252 16.8781C15.0695 17.3149 14.8667 17.734 14.6436 18.1287C14.3273 18.6902 13.9731 19.2056 13.5852 19.6681C13.8528 19.7237 14.111 19.6993 14.326 19.6437C14.5545 19.584 14.7369 19.4891 14.8357 19.4118L16.2199 18.3281L17.5339 17.9415C18.0936 17.795 18.4559 17.3488 18.5586 17.1209L19.2846 15.5137L20.2362 14.5886L20.2687 14.5588C20.6958 14.1654 20.8107 13.6025 20.7959 13.3516L20.6959 11.5911L21.1258 10.2836Z" fill="#FFD547"/>
<path fill-rule="evenodd" clip-rule="evenodd" d="M13.1949 13.9999V7.37692C13.1949 7.11514 13.1124 6.90219 12.9475 6.73671C12.7839 6.57258 12.5825 6.48987 12.346 6.48987H10.6927C10.4547 6.48987 10.2519 6.57258 10.0843 6.73671C9.91537 6.90219 9.83154 7.10022 9.83154 7.33079C9.83154 7.55323 9.91537 7.74856 10.0843 7.91808C10.2668 8.07947 10.471 8.15949 10.6927 8.15949H11.347V13.9998C11.347 14.2453 11.4362 14.4583 11.616 14.6387C11.7958 14.8191 12.0161 14.9099 12.277 14.9099C12.5366 14.9099 12.7542 14.8191 12.9313 14.6387C13.1071 14.4583 13.1949 14.2454 13.1949 13.9999Z" fill="#FFF8E2"/>
</svg>
