<svg width="22" height="22" viewBox="0 0 22 22" fill="none" xmlns="http://www.w3.org/2000/svg">
<path fill-rule="evenodd" clip-rule="evenodd" d="M0.48542 16.3382C-0.0113306 16.837 0.149799 17.4388 0.968725 17.4792L3.30111 17.7757C4.1091 17.8774 3.94797 17.9118 4.04439 18.6826L4.29092 20.815C4.33243 21.6386 4.93167 21.7991 5.42721 21.3003L7.08466 19.6373L8.78115 17.9326C8.63347 17.8775 8.48214 17.7942 8.34543 17.6765L7.142 14.6287L3.46705 13.3444L0.48542 16.3382Z" fill="#0083FD"/>
<path fill-rule="evenodd" clip-rule="evenodd" d="M5.68874 18.597L4.20703 20.0848L4.29126 20.8152C4.33277 21.6387 4.93201 21.7992 5.42755 21.3005L7.085 19.6375L8.78149 17.9328C8.63381 17.8776 8.48248 17.7943 8.34577 17.6766L7.38644 16.8923L5.68874 18.597Z" fill="#0072FC"/>
<path fill-rule="evenodd" clip-rule="evenodd" d="M13.2181 17.9326L14.9158 19.6373L16.5721 21.3003C17.0688 21.7991 17.6681 21.6385 17.7096 20.815L17.9549 18.6826C18.0513 17.9117 17.8902 17.8774 18.6994 17.7757L21.0306 17.4791C21.8508 17.4387 22.0106 16.8369 21.5151 16.3382L18.5139 13.3246L14.5033 13.7327L13.2181 17.9326Z" fill="#0083FD"/>
<path fill-rule="evenodd" clip-rule="evenodd" d="M17.3685 14.6927L20.2428 17.58L21.03 17.4796C21.8502 17.4391 22.0101 16.8374 21.5146 16.3386L18.5133 13.3251L16.2371 13.5567L17.3685 14.6927Z" fill="#0072FC"/>
<path fill-rule="evenodd" clip-rule="evenodd" d="M11.8973 0.588728L13.1343 1.17635L14.8864 1.28924C15.1352 1.30556 15.6773 1.48919 16.0139 1.96393L16.8386 3.06434L18.3365 3.98523C18.5501 4.11579 18.9463 4.53205 19.0247 5.11152L19.2477 6.47175L20.1508 7.98978C20.2792 8.20605 20.4374 8.75968 20.24 9.30786L19.8101 10.6191L19.9102 12.3847C19.925 12.6364 19.8101 13.2009 19.3829 13.5953L18.3987 14.5529L17.6727 16.1648C17.5699 16.3933 17.2076 16.8408 16.6479 16.9877L15.3338 17.3754L13.9494 18.4622C13.7521 18.6173 13.2262 18.8431 12.6611 18.7111L11.3199 18.4391L9.59354 18.7519C9.3475 18.7968 8.77699 18.7506 8.33893 18.3697L7.2763 17.4992L5.60261 16.9673C5.36465 16.8925 4.88201 16.5838 4.6684 16.041L4.12897 14.7733L2.89195 13.5178C2.71621 13.3382 2.42958 12.8391 2.49179 12.2583L2.59859 10.8831L2.08217 9.19226C2.0078 8.95151 1.98484 8.37475 2.30659 7.88915L3.03526 6.72206L3.35701 4.98231C3.40299 4.73475 3.64902 4.21376 4.15737 3.93491L5.34029 3.24121L6.42723 1.85239C6.58135 1.65515 7.03964 1.30832 7.61828 1.30016L8.98507 1.24028L10.5885 0.519343C10.8158 0.417318 11.3808 0.324851 11.8973 0.588728V0.588728Z" fill="#E3E3E3"/>
<path fill-rule="evenodd" clip-rule="evenodd" d="M11.1849 16.6831C15.0771 16.6831 18.2325 13.5083 18.2325 9.59085C18.2325 5.67476 15.0771 2.49994 11.1849 2.49994C7.29127 2.49994 4.13586 5.67471 4.13586 9.59085C4.13586 13.5083 7.29127 16.6831 11.1849 16.6831Z" fill="#B3A8B2"/>
<path fill-rule="evenodd" clip-rule="evenodd" d="M18.2324 9.59071C18.2324 6.386 16.1194 3.6778 13.2181 2.80042C14.5809 4.76049 15.4218 7.44971 15.4218 10.4191C15.4218 12.0269 15.1758 13.5531 14.7323 14.9256C14.6228 15.267 14.4998 15.5989 14.3659 15.9212C15.3988 15.3948 16.2857 14.6195 16.9481 13.6741C17.7566 12.5206 18.2324 11.1114 18.2324 9.59071Z" fill="#A297A0"/>
<path fill-rule="evenodd" clip-rule="evenodd" d="M20.2401 9.30783C20.4375 8.75965 20.2793 8.20602 20.1509 7.98975L19.2478 6.47173L19.0247 5.1115C18.9463 4.53203 18.5502 4.11582 18.3366 3.98521L16.8387 3.06432L16.0139 1.96395C15.6773 1.48922 15.1352 1.30559 14.8864 1.28927L13.1343 1.17638L11.8973 0.588754C11.5052 0.388807 11.0848 0.392863 10.8063 0.452736C11.7148 1.01178 12.5327 1.81297 13.2181 2.80049C16.1194 3.67782 18.2324 6.38607 18.2324 9.59078C18.2324 11.1115 17.7565 12.5207 16.9481 13.6742C16.2856 14.6195 15.3988 15.3949 14.3659 15.9213C14.1834 16.3593 13.9806 16.7796 13.7575 17.1755C13.4411 17.7386 13.0869 18.2555 12.6989 18.7193C12.9666 18.7751 13.2248 18.7506 13.4398 18.6948C13.6683 18.635 13.8508 18.5398 13.9495 18.4622L15.3339 17.3754L16.648 16.9877C17.2077 16.8408 17.57 16.3933 17.6727 16.1648L18.3987 14.5529L19.3505 13.6252L19.3829 13.5953C19.8101 13.2008 19.925 12.6363 19.9102 12.3847L19.8102 10.6191L20.2401 9.30783Z" fill="#D6CFD5"/>
<path fill-rule="evenodd" clip-rule="evenodd" d="M13.9005 7.41048C13.9005 6.74125 13.6558 6.17811 13.1664 5.7238C12.6757 5.26813 12.0565 5.04095 11.3089 5.04095C10.5613 5.04095 9.91368 5.29261 9.36882 5.79724C8.82266 6.30051 8.54953 6.89089 8.54953 7.56828C8.54953 8.17768 8.82669 8.48236 9.37963 8.48236C9.72299 8.48236 9.97042 8.28786 10.1205 7.89608L10.2773 7.47847C10.4639 6.97384 10.7775 6.72218 11.2196 6.72218C11.444 6.72218 11.632 6.79973 11.7861 6.95342C11.9389 7.10711 12.0159 7.29074 12.0159 7.5016C12.0159 7.79406 11.851 8.17082 11.5225 8.62924C11.321 8.90128 10.883 9.43178 10.2097 10.2207L8.81857 11.8462C8.59416 12.1182 8.48193 12.3399 8.48193 12.5127C8.48193 12.7534 8.56577 12.9493 8.73474 13.099C8.90236 13.2499 9.11736 13.3247 9.37963 13.3247H13.2948C13.526 13.3247 13.7207 13.2458 13.8775 13.088C14.0357 12.9071 14.1141 12.7085 14.1141 12.4896C14.1141 12.2787 14.0316 12.091 13.8667 11.9251C13.6868 11.7673 13.4895 11.6884 13.2718 11.6884H11.2304C11.8658 10.9742 12.2957 10.4737 12.5201 10.188L13.2271 9.2848C13.6761 8.6374 13.9005 8.01303 13.9005 7.41048V7.41048Z" fill="#FEFEFE"/>
</svg>
