<svg width="22" height="22" viewBox="0 0 22 22" fill="none" xmlns="http://www.w3.org/2000/svg">
<path fill-rule="evenodd" clip-rule="evenodd" d="M0.407909 16.2883C-0.088848 16.7919 0.0722839 17.3994 0.89122 17.4402L3.22363 17.7396C4.03164 17.8422 3.8705 17.8769 3.96692 18.6551L4.21346 20.8079C4.25497 21.6393 4.85422 21.8013 5.34976 21.2978L7.00723 19.6189L8.70375 17.898C8.55606 17.8423 8.40473 17.7582 8.26802 17.6394L7.06457 14.5625L3.38958 13.2659L0.407909 16.2883Z" fill="#29AB97"/>
<path fill-rule="evenodd" clip-rule="evenodd" d="M5.61136 18.568L4.12964 20.07L4.21387 20.8073C4.25538 21.6387 4.85463 21.8008 5.35017 21.2973L7.00764 19.6184L8.70416 17.8974C8.55647 17.8417 8.40514 17.7576 8.26843 17.6388L7.30909 16.847L5.61136 18.568Z" fill="#129984"/>
<path fill-rule="evenodd" clip-rule="evenodd" d="M13.2958 17.8975L14.9935 19.6185L16.6498 21.2974C17.1465 21.801 17.7458 21.6389 17.7873 20.8075L18.0326 18.6547C18.129 17.8765 17.9679 17.8419 18.7771 17.7391L21.1083 17.4398C21.9285 17.3989 22.0884 16.7914 21.5928 16.2879L18.5916 13.2456L14.5809 13.6576L13.2958 17.8975Z" fill="#29AB97"/>
<path fill-rule="evenodd" clip-rule="evenodd" d="M17.4463 14.6267L20.3206 17.5416L21.1079 17.4401C21.9281 17.3993 22.0879 16.7918 21.5924 16.2883L18.5911 13.246L16.3148 13.4798L17.4463 14.6267Z" fill="#129984"/>
<path fill-rule="evenodd" clip-rule="evenodd" d="M11.8228 0.590433L13.0598 1.18367L14.8118 1.29764C15.0606 1.31412 15.6027 1.4995 15.9394 1.97877L16.764 3.0897L18.2619 4.01939C18.4755 4.1512 18.8717 4.57144 18.9501 5.15644L19.1731 6.52967L20.0762 8.06221C20.2046 8.28054 20.3628 8.83947 20.1654 9.39288L19.7355 10.7167L19.8355 12.4991C19.8504 12.7532 19.7355 13.3231 19.3083 13.7213L18.3241 14.688L17.5981 16.3153C17.4953 16.5461 17.133 16.9978 16.5733 17.1461L15.2593 17.5375L13.8749 18.6347C13.6776 18.7913 13.1516 19.0192 12.5866 18.886L11.2454 18.6114L9.51908 18.9272C9.27305 18.9725 8.70254 18.9258 8.26449 18.5413L7.20188 17.6625L5.52821 17.1255C5.29026 17.05 4.80762 16.7383 4.59402 16.1904L4.0546 14.9106L2.81759 13.6431C2.64185 13.4618 2.35523 12.9578 2.41745 12.3715L2.52424 10.9831L2.00783 9.27618C1.93346 9.03313 1.9105 8.45086 2.23224 7.96062L2.96091 6.78237L3.28265 5.026C3.32863 4.77608 3.57465 4.25011 4.08299 3.9686L5.2659 3.26826L6.35282 1.86617C6.50694 1.66704 6.96522 1.3169 7.54385 1.30866L8.91062 1.24821L10.514 0.520385C10.7413 0.417385 11.3064 0.324035 11.8228 0.590433V0.590433Z" fill="#FFA551"/>
<path fill-rule="evenodd" clip-rule="evenodd" d="M11.1111 16.8385C15.0033 16.8385 18.1587 13.6334 18.1587 9.67845C18.1587 5.72494 15.0033 2.51978 11.1111 2.51978C7.21761 2.51978 4.06226 5.72489 4.06226 9.67845C4.06226 13.6333 7.21761 16.8385 11.1111 16.8385Z" fill="#EC7216"/>
<path fill-rule="evenodd" clip-rule="evenodd" d="M18.1578 9.67879C18.1578 6.44346 16.0448 3.70938 13.1436 2.82361C14.5063 4.80241 15.3472 7.51734 15.3472 10.5151C15.3472 12.1382 15.1012 13.679 14.6577 15.0646C14.5482 15.4093 14.4252 15.7444 14.2913 16.0698C15.3242 15.5384 16.211 14.7556 16.8735 13.8012C17.6819 12.6367 18.1578 11.2141 18.1578 9.67879Z" fill="#DD6A1D"/>
<path fill-rule="evenodd" clip-rule="evenodd" d="M20.1656 9.39286C20.363 8.83944 20.2048 8.28052 20.0764 8.06218L19.1733 6.52965L18.9503 5.15642C18.8719 4.57142 18.4758 4.15123 18.2622 4.01937L16.7642 3.08968L15.9395 1.9788C15.6029 1.49953 15.0608 1.31415 14.812 1.29767L13.0599 1.1837L11.8229 0.59046C11.4309 0.388601 11.0104 0.392697 10.7319 0.453141C11.6404 1.01753 12.4583 1.82637 13.1437 2.82333C16.0449 3.70905 18.158 6.44317 18.158 9.67851C18.158 11.2138 17.6821 12.6364 16.8736 13.8009C16.2112 14.7553 15.3243 15.538 14.2915 16.0695C14.109 16.5117 13.9062 16.936 13.6831 17.3357C13.3667 17.9042 13.0126 18.426 12.6246 18.8943C12.8923 18.9506 13.1505 18.9259 13.3654 18.8696C13.5939 18.8091 13.7764 18.713 13.8751 18.6347L15.2595 17.5375L16.5735 17.1461C17.1332 16.9979 17.4955 16.546 17.5983 16.3154L18.3243 14.6881L19.276 13.7515L19.3084 13.7213C19.7356 13.323 19.8505 12.7531 19.8357 12.4991L19.7357 10.7167L20.1656 9.39286Z" fill="#FF8709"/>
<path d="M11.1104 13.9658C9.65398 13.9658 8.72726 12.9471 8.54888 11.7384C8.53267 11.6284 8.52755 11.6379 8.52755 11.3924C8.52755 11.147 8.95927 10.8448 9.31921 10.8448C9.78872 10.8448 10.0503 11.1408 10.0503 11.6173C10.0503 12.1438 10.5915 12.6623 11.1104 12.6623C11.6294 12.6623 11.9943 12.2309 12.0516 11.7074C12.0733 11.5088 12.0733 11.2687 12.0516 11.1927C12.0516 11.1927 11.8821 10.4547 11.156 10.4547C10.1694 10.4547 10.3788 9.45045 10.3788 9.45045C10.3788 9.02734 10.7992 9.02734 11.1105 9.02734C11.6294 9.02734 12.0516 8.59898 12.0516 8.07243C12.0516 7.54589 11.6294 7.11753 11.1105 7.11753C10.5916 7.11753 10.1694 7.54589 10.1694 8.07243C10.1694 8.54888 9.78876 8.93506 9.31926 8.93506C8.84975 8.93506 8.46912 8.54888 8.46912 8.07243C8.46912 6.59464 9.65403 5.39233 11.1104 5.39233C12.5669 5.39233 13.7518 6.59464 13.7518 8.07243C13.7518 8.77318 13.4855 9.41187 13.05 9.88996C13.3926 10.2661 13.6664 10.8425 13.6944 11.0389C13.7224 11.2352 13.7263 11.5152 13.6944 11.7053C13.4836 12.9623 12.5669 13.9658 11.1104 13.9658Z" fill="#FFF1E3"/>
</svg>
