<svg id="undraw_Reading_re_29f8" xmlns="http://www.w3.org/2000/svg" width="76" height="59" viewBox="0 0 76 59">
  <path id="Path" d="M5.9,9,0,0S8.934,3.2,7.92,9Z" transform="translate(63 36)" fill="#e5e5e5"/>
  <path id="Path-2" data-name="Path" d="M.235,18,0,18a51.326,51.326,0,0,1,.835-7.559C1.853,5.09,3.545,1.579,5.865,0L6,.187C.581,3.874.238,17.859.235,18Z" transform="translate(5 27)" fill="#e5e5e5"/>
  <path id="Path-3" data-name="Path" d="M.261,8,0,8c.006-.257.169-6.32,2.85-8L3,.19C.427,1.8.262,7.938.261,8Z" transform="translate(8 37)" fill="#e5e5e5"/>
  <circle id="Oval" cx="1" cy="1" r="1" transform="translate(11 25)" fill="#009580"/>
  <circle id="Oval-2" data-name="Oval" cx="1" cy="1" r="1" transform="translate(11 35)" fill="#009580"/>
  <path id="Path-4" data-name="Path" d="M1.937,2.384A4.165,4.165,0,0,1,1.5,5,4.84,4.84,0,0,1,.063,2.616,4.165,4.165,0,0,1,.5,0,4.84,4.84,0,0,1,1.937,2.384Z" transform="translate(6 25)" fill="#e5e5e5"/>
  <path id="Path-5" data-name="Path" d="M2.753,1.75A5.26,5.26,0,0,1,0,1.871,5.346,5.346,0,0,1,2.247.25,5.26,5.26,0,0,1,5,.129,5.346,5.346,0,0,1,2.753,1.75Z" transform="translate(9 29)" fill="#e5e5e5"/>
  <path id="Path-6" data-name="Path" d="M1.652.877A3.793,3.793,0,0,1,0,.936,3.247,3.247,0,0,1,3,.073a3.253,3.253,0,0,1-1.348.8Z" transform="translate(10 39)" fill="#e5e5e5"/>
  <path id="Path-7" data-name="Path" d="M75.883.1H.117C.052.1,0,.078,0,.05S.052,0,.117,0H75.883c.065,0,.117.022.117.05S75.948.1,75.883.1Z" transform="translate(0 44.95)" fill="#cbcbcb"/>
  <path id="Path-8" data-name="Path" d="M11,3.583,10.045,6,0,3.568,1.41,0,11,3.583Z" transform="translate(37 47)" fill="#ffb7b7"/>
  <path id="Path-9" data-name="Path" d="M5,1.2,2.109,9l-.1-.038a3.288,3.288,0,0,1-1.8-4.2h0L1.976,0Z" transform="translate(45 50)" fill="#2f2e41"/>
  <path id="Path-10" data-name="Path" d="M4.266,0,.2.419,0,13.722a2.355,2.355,0,0,0,2.423,2.272L5,15.8Z" transform="translate(28 19)" fill="#e5e5e5"/>
  <path id="Path-11" data-name="Path" d="M3.185.037.178,0,0,15H0a4.932,4.932,0,0,0,3.592-1.374A4.585,4.585,0,0,0,5,10.148Z" transform="translate(45 19)" fill="#e5e5e5"/>
  <path id="Path-12" data-name="Path" d="M1,2.17A9.526,9.526,0,0,1,.686,3.512c-.155.43-.395.828-.536,1.262a4.18,4.18,0,0,0,1.176,4,6.638,6.638,0,0,0,3.227,1.889,13.346,13.346,0,0,0,2.773.287,21.813,21.813,0,0,0,7.663-.653,13.407,13.407,0,0,0,2.226-1,1.663,1.663,0,0,0,.578-.448A1.549,1.549,0,0,0,18,7.93c-.005-1.077-.227-2.149-.174-3.225a12.6,12.6,0,0,0,.087-1.785A3.31,3.31,0,0,0,15.359.083a7.033,7.033,0,0,0-2.117,0A54.734,54.734,0,0,1,7.734.326C5.854.314,3.987.031,2.117,0,1.564-.007,1.575.161,1.4.688A12.706,12.706,0,0,0,1,2.17Z" transform="translate(29 37)" fill="#2f2e41"/>
  <path id="Path-13" data-name="Path" d="M5.034.166A5.29,5.29,0,0,0,3.535,0,3.72,3.72,0,0,0,.8,1.452,3.871,3.871,0,0,0,.061,4.5,6.489,6.489,0,0,0,.655,6.156a5.52,5.52,0,0,0,1.61,2.171,6.22,6.22,0,0,0,1.421.69l3.876,1.489c.57.219,1.141.438,1.717.641a33.008,33.008,0,0,0,8.966,1.817,9.524,9.524,0,0,0,2.784-.144.9.9,0,0,0,.57-.314,1.01,1.01,0,0,0,.127-.429l.239-1.7a1.453,1.453,0,0,0-.02-.718,1.36,1.36,0,0,0-.644-.619c-2.548-1.492-5.524-2.316-7.669-4.364-.5-.482-.928-1.247-1.541-1.574-.7-.371-1.515-.583-2.234-.926A24.466,24.466,0,0,0,5.034.166Z" transform="translate(18 38)" fill="#2f2e41"/>
  <path id="Path-14" data-name="Path" d="M1.756.4C3.143.842,9,3.923,10,5c-.134.05-4.7-2.568-4.834-2.61A27.148,27.148,0,0,1,1.487,1.062C1.25.95-.057.42,0,.113.069-.233,1.51.319,1.756.4Z" transform="translate(26 41)" opacity="0.1"/>
  <path id="Path-15" data-name="Path" d="M7.405.177,3.74,3.027S-.127,3.151,0,5.682,1.682,20.2,1.682,20.2l.336,4.124,6.37,1.859a20.371,20.371,0,0,0,10.559.232h0l-.757-4.137S21.255,3.487,19.408,2.659a5.388,5.388,0,0,0-3-.591L14.093,0Z" transform="translate(28 15)" fill="#e5e5e5"/>
  <path id="Path-16" data-name="Path" d="M15,9.931c0,3.582-3.358,3.04-7.5,3.04S0,13.513,0,9.931,1.64,0,7.5,0C13.562,0,15,6.349,15,9.931Z" transform="translate(32)" fill="#2f2e41"/>
  <circle id="Oval-3" data-name="Oval" cx="5.077" cy="5.077" r="5.077" transform="translate(32.244 8.064) rotate(-45)" fill="#ffb7b7"/>
  <path id="Path-17" data-name="Path" d="M0,5H2.045l.9-2.308L3.128,5h.977l.526-1.346L4.737,5H12A5.253,5.253,0,0,0,6.526,0H5.474A5.253,5.253,0,0,0,0,5Z" transform="translate(33 3)" fill="#2f2e41"/>
  <rect id="Rectangle" width="10" height="12" transform="translate(34 16)" fill="#009580"/>
  <path id="Path-18" data-name="Path" d="M0,3.583.955,6,11,3.568,9.59,0,0,3.583Z" transform="translate(35 47)" fill="#ffb7b7"/>
  <path id="Path-19" data-name="Path" d="M3.024,0,4.79,4.762h0a3.288,3.288,0,0,1-1.8,4.2L2.891,9,0,1.2Z" transform="translate(32 50)" fill="#2f2e41"/>
  <path id="Path-20" data-name="Path" d="M16.9.215a6.928,6.928,0,0,1,2.48-.172A3.084,3.084,0,0,1,21.2.771,3.2,3.2,0,0,1,22,3.042a7.17,7.17,0,0,1-1.517,4.531,4.074,4.074,0,0,1-.867.849,5.668,5.668,0,0,1-1.128.553L9.729,12.485a55.961,55.961,0,0,1-7.02,2.459.543.543,0,0,1-.731-.259l-.006-.012A18.541,18.541,0,0,1,.054,11.1a.244.244,0,0,1-.045-.217.239.239,0,0,1,.149-.162L6.353,7.106a6.261,6.261,0,0,0,1.261-.883,3.181,3.181,0,0,0,.647-.916c.128-.273.14-.916.3-1.118s.71-.213.964-.291a8.655,8.655,0,0,0,1.049-.4c1.386-.63,2.62-1.546,3.948-2.284A10.039,10.039,0,0,1,16.9.215Z" transform="translate(38 37)" fill="#2f2e41"/>
  <path id="Path-21" data-name="Path" d="M9.678.665c-1.036.784-2.377,1.5-3.4,2.309C5.923,3.248.083,6.556,0,7c.958.163,7.059-4.137,7.932-4.566A14.092,14.092,0,0,0,10.346.795c.2-.153,1.024-.613.463-.784C10.492-.086,9.911.508,9.678.665Z" transform="translate(41 40)" opacity="0.1"/>
  <path id="Path-22" data-name="Path" d="M0,1.059.151,0S5.787.373,4.907,1.63,1.887,3,1.887,3Z" transform="translate(30 22)" fill="#2f2e41" opacity="0.17"/>
  <path id="Path-23" data-name="Path" d="M6.083.013A2.164,2.164,0,0,1,7.65.944h0a2.03,2.03,0,0,1,.295,1.609A2.095,2.095,0,0,1,6.665,4.009L3.275,14.054A1.723,1.723,0,0,1,1.847,15a1.742,1.742,0,0,1-1.553-.733,1.624,1.624,0,0,1-.115-1.67L3.783,2.66A2.032,2.032,0,0,1,4.2.741,2.184,2.184,0,0,1,6.083.013Z" transform="translate(29 18)" fill="#ffb7b7"/>
  <path id="Path-24" data-name="Path" d="M2.5,0S4.339,3.023,7,1.512L4.421,11H2.248L0,10.6l.629-3.92Z" transform="translate(28 23)" fill="#e5e5e5"/>
  <path id="Path-25" data-name="Path" d="M1.526,3.939,0,1.677S.733-.669,3.576.189C3.576.189,5.386,4.563,1.526,3.939Z" transform="translate(42 21)" fill="#e5e5e5"/>
  <path id="Path-26" data-name="Path" d="M1.526,3.939,0,1.677S.733-.669,3.576.189C3.576.189,5.386,4.563,1.526,3.939Z" transform="translate(42 21)" fill="#2f2e41" opacity="0.17"/>
  <path id="Path-27" data-name="Path" d="M3.067.2A2.049,2.049,0,0,1,4.217,2.661l3.605,9.933a1.624,1.624,0,0,1-.115,1.67A1.742,1.742,0,0,1,6.153,15a1.723,1.723,0,0,1-1.428-.942L1.335,4.01A2.095,2.095,0,0,1,.055,2.554,2.029,2.029,0,0,1,.35.945h0A2.164,2.164,0,0,1,1.917.013,2.188,2.188,0,0,1,3.067.2Z" transform="translate(41 17)" fill="#ffb7b7"/>
  <path id="Path-28" data-name="Path" d="M0,1.352A2.294,2.294,0,0,0,3.514,0L7,9.165,5.964,10.974l-.15.012A3.833,3.833,0,0,1,2.536,9.6h0A7.6,7.6,0,0,1,.946,6.226Z" transform="translate(42 21)" fill="#e5e5e5"/>
</svg>
