<svg xmlns="http://www.w3.org/2000/svg" xmlns:xlink="http://www.w3.org/1999/xlink" width="286.066" height="286.066" viewBox="0 0 286.066 286.066"><defs><linearGradient id="a" x1="0.5" x2="0.5" y2="1" gradientUnits="objectBoundingBox"><stop offset="0" stop-color="#ffc107"/><stop offset="1" stop-color="#f96cd6"/></linearGradient><filter id="b" x="0" y="0" width="286.066" height="286.066" filterUnits="userSpaceOnUse"><feOffset dy="20" input="SourceAlpha"/><feGaussianBlur stdDeviation="30" result="c"/><feFlood flood-opacity="0.161"/><feComposite operator="in" in2="c"/><feComposite in="SourceGraphic"/></filter></defs><g transform="translate(-341.096 -513)"><g transform="matrix(1, 0, 0, 1, 341.1, 513)" filter="url(#b)"><path d="M26.42,0H48.58A26.42,26.42,0,0,1,75,26.42V48.58A26.42,26.42,0,0,1,48.58,75H26.42A26.42,26.42,0,0,1,0,48.58V26.42A26.42,26.42,0,0,1,26.42,0Z" transform="translate(143.03 70) rotate(45)" fill="url(#a)"/></g><path d="M28.683,0H4.1A4.1,4.1,0,0,0,0,4.1V26.379a4.1,4.1,0,0,0,4.1,4.1H28.683a4.1,4.1,0,0,0,4.1-4.1V4.1A4.1,4.1,0,0,0,28.683,0ZM12.549,26.89A2.949,2.949,0,0,0,9.6,23.945H3.585V4.1A.52.52,0,0,1,4.1,3.585H28.683A.52.52,0,0,1,29.2,4.1V23.945H22.665a2.949,2.949,0,0,0-2.945,2.945Z" transform="translate(468.129 621)" fill="#fff"/><path d="M7.793,7.585h7.171a1.793,1.793,0,0,0,0-3.585H7.793a1.793,1.793,0,1,0,0,3.585Z" transform="translate(472.885 624.171)" fill="#fff"/><path d="M17.549,10.585a1.793,1.793,0,0,0,0-3.585H6.793a1.793,1.793,0,0,0,0,3.585Z" transform="translate(472.092 626.549)" fill="#fff"/><path d="M16.756,11.793A1.792,1.792,0,0,0,14.963,10H7.793a1.793,1.793,0,1,0,0,3.585h7.171A1.792,1.792,0,0,0,16.756,11.793Z" transform="translate(472.885 628.927)" fill="#fff"/></g></svg>