<svg xmlns="http://www.w3.org/2000/svg" xmlns:xlink="http://www.w3.org/1999/xlink" width="286.066" height="286.066" viewBox="0 0 286.066 286.066"><defs><linearGradient id="a" x1="0.5" x2="0.5" y2="1" gradientUnits="objectBoundingBox"><stop offset="0" stop-color="#f48763"/><stop offset="1" stop-color="#fca040"/></linearGradient><filter id="b" x="0" y="0" width="286.066" height="286.066" filterUnits="userSpaceOnUse"><feOffset dy="20" input="SourceAlpha"/><feGaussianBlur stdDeviation="30" result="c"/><feFlood flood-opacity="0.161"/><feComposite operator="in" in2="c"/><feComposite in="SourceGraphic"/></filter></defs><g transform="translate(-705.87 -891)"><g transform="matrix(1, 0, 0, 1, 705.87, 891)" filter="url(#b)"><path d="M26.42,0H48.58A26.42,26.42,0,0,1,75,26.42V48.58A26.42,26.42,0,0,1,48.58,75H26.42A26.42,26.42,0,0,1,0,48.58V26.42A26.42,26.42,0,0,1,26.42,0Z" transform="translate(143.03 70) rotate(45)" fill="url(#a)"/></g><path d="M1.174,17.384a1.173,1.173,0,0,1-.626-2.165l5.027-3.167a3.353,3.353,0,0,1,3.407-.2,8.687,8.687,0,0,0,5.718-.036,3.282,3.282,0,0,1,3.3.13l4.933,3.292a1.173,1.173,0,0,1-1.3,1.951l-4.917-3.281a.913.913,0,0,0-.922-.015,10.843,10.843,0,0,1-7.826.074A1.063,1.063,0,0,0,6.877,14L1.8,17.2A1.185,1.185,0,0,1,1.174,17.384Z" transform="translate(832.453 1006.549)" fill="#fff"/><path d="M10.812,11.726a5.863,5.863,0,1,1,5.863-5.863A5.87,5.87,0,0,1,10.812,11.726Zm0-9.381A3.518,3.518,0,1,0,14.33,5.863,3.522,3.522,0,0,0,10.812,2.345Z" transform="translate(833.308 1004.575)" fill="#fff"/><path d="M28.881,13.714a1.165,1.165,0,0,1-.65-.2l-3.551-2.37a.336.336,0,0,0-.334.006,8.09,8.09,0,0,1-5.944.059.474.474,0,0,0-.456,0A1.173,1.173,0,1,1,16.592,9.3a2.762,2.762,0,0,1,2.827-.2,5.96,5.96,0,0,0,3.837-.021,2.7,2.7,0,0,1,2.711.108l3.567,2.379a1.174,1.174,0,0,1-.653,2.149Z" transform="translate(835.231 1006.088)" fill="#fff"/><path d="M21.134,9.629a4.56,4.56,0,1,1,4.56-4.56A4.566,4.566,0,0,1,21.134,9.629Zm0-6.775a2.215,2.215,0,1,0,2.215,2.215A2.217,2.217,0,0,0,21.134,2.853Z" transform="translate(835.314 1004.663)" fill="#fff"/></g></svg>