<svg xmlns="http://www.w3.org/2000/svg" xmlns:xlink="http://www.w3.org/1999/xlink" width="286.066" height="286.066" viewBox="0 0 286.066 286.066"><defs><linearGradient id="a" x1="0.5" x2="0.5" y2="1" gradientUnits="objectBoundingBox"><stop offset="0" stop-color="#e46bd7"/><stop offset="1" stop-color="#fd60af"/></linearGradient><filter id="b" x="0" y="0" width="286.066" height="286.066" filterUnits="userSpaceOnUse"><feOffset dy="20" input="SourceAlpha"/><feGaussianBlur stdDeviation="30" result="c"/><feFlood flood-opacity="0.161"/><feComposite operator="in" in2="c"/><feComposite in="SourceGraphic"/></filter></defs><g transform="translate(-1083.372 -891)"><g transform="matrix(1, 0, 0, 1, 1083.37, 891)" filter="url(#b)"><path d="M26.42,0H48.58A26.42,26.42,0,0,1,75,26.42V48.58A26.42,26.42,0,0,1,48.58,75H26.42A26.42,26.42,0,0,1,0,48.58V26.42A26.42,26.42,0,0,1,26.42,0Z" transform="translate(143.03 70) rotate(45)" fill="url(#a)"/></g><g transform="translate(1210.372 1000)"><path d="M25.673,28.836H5.914A5.914,5.914,0,0,1,0,22.922V5.914A5.913,5.913,0,0,1,5.914,0H20.49A5.912,5.912,0,0,1,26.4,5.912v14.4A1.691,1.691,0,0,1,24.712,22h0a1.691,1.691,0,0,1-1.691-1.691V5.914A2.531,2.531,0,0,0,20.49,3.383H5.914A2.531,2.531,0,0,0,3.383,5.914V22.925a2.53,2.53,0,0,0,2.53,2.53H25.675a2.53,2.53,0,0,0,2.53-2.53V3.679a1.691,1.691,0,0,1,1.691-1.691h0a1.691,1.691,0,0,1,1.691,1.691V22.923A5.912,5.912,0,0,1,25.673,28.836Z" fill="#fff"/></g><path d="M15.217,8.918H5.722a1.583,1.583,0,1,1,0-3.166h9.5a1.583,1.583,0,1,1,0,3.166Z" transform="translate(1212.885 1003.492)" fill="#fff"/><path d="M15.217,12.857H5.722a1.583,1.583,0,1,1,0-3.166h9.5a1.583,1.583,0,1,1,0,3.166Z" transform="translate(1212.885 1005.883)" fill="#fff"/></g></svg>