<svg xmlns="http://www.w3.org/2000/svg" xmlns:xlink="http://www.w3.org/1999/xlink" width="286.066" height="286.066" viewBox="0 0 286.066 286.066"><defs><linearGradient id="a" x1="0.5" x2="0.5" y2="1" gradientUnits="objectBoundingBox"><stop offset="0" stop-color="#ffc107"/><stop offset="1" stop-color="#f96cd6"/></linearGradient><filter id="b" x="0" y="0" width="286.066" height="286.066" filterUnits="userSpaceOnUse"><feOffset dy="20" input="SourceAlpha"/><feGaussianBlur stdDeviation="30" result="c"/><feFlood flood-opacity="0.161"/><feComposite operator="in" in2="c"/><feComposite in="SourceGraphic"/></filter></defs><g transform="translate(-1458 -891)"><g transform="matrix(1, 0, 0, 1, 1458, 891)" filter="url(#b)"><path d="M26.42,0H48.58A26.42,26.42,0,0,1,75,26.42V48.58A26.42,26.42,0,0,1,48.58,75H26.42A26.42,26.42,0,0,1,0,48.58V26.42A26.42,26.42,0,0,1,26.42,0Z" transform="translate(143.03 70) rotate(45)" fill="url(#a)"/></g><path d="M26.837,16.632H24.279V12.793c0-5.643-4.018-10.235-8.955-10.235S6.368,7.15,6.368,12.793v3.838H3.809V12.793C3.809,5.739,8.974,0,15.323,0S26.837,5.739,26.837,12.793Z" transform="translate(1586.6 997.229)" fill="#fff"/><path d="M5.629,22.458a5.629,5.629,0,1,1,0-11.258c1.9,0,3.081,2.157,3.081,5.629S7.53,22.458,5.629,22.458Zm-.111-8.7a3.07,3.07,0,0,0,0,6.136,5.656,5.656,0,0,0,.633-3.068A5.631,5.631,0,0,0,5.518,13.761Z" transform="translate(1585.535 1000.357)" fill="#fff"/><path d="M21.08,22.458c-1.9,0-3.079-2.156-3.079-5.629a10.284,10.284,0,0,1,.528-3.432c.7-1.911,1.9-2.2,2.551-2.2a5.629,5.629,0,1,1,0,11.258Zm.161-2.514h0Zm-.049-6.183a5.66,5.66,0,0,0-.633,3.068,5.656,5.656,0,0,0,.633,3.068,3.07,3.07,0,0,0,0-6.136Z" transform="translate(1590.563 1000.357)" fill="#fff"/><path d="M16.088,28.235a1.279,1.279,0,1,1,0-2.559,5.123,5.123,0,0,0,5.117-5.117V19.279a1.279,1.279,0,0,1,2.559,0v1.279A7.685,7.685,0,0,1,16.088,28.235Z" transform="translate(1589.672 1002.257)" fill="#fff"/><circle cx="2.559" cy="2.559" r="2.559" transform="translate(1601.922 1026.654)" fill="#fff"/></g></svg>