<svg xmlns="http://www.w3.org/2000/svg" xmlns:xlink="http://www.w3.org/1999/xlink" width="286.066" height="286.066" viewBox="0 0 286.066 286.066"><defs><linearGradient id="a" x1="0.5" x2="0.5" y2="1" gradientUnits="objectBoundingBox"><stop offset="0" stop-color="#24bfb6"/><stop offset="1" stop-color="#41e595"/></linearGradient><filter id="b" x="0" y="0" width="286.066" height="286.066" filterUnits="userSpaceOnUse"><feOffset dy="20" input="SourceAlpha"/><feGaussianBlur stdDeviation="30" result="c"/><feFlood flood-opacity="0.161"/><feComposite operator="in" in2="c"/><feComposite in="SourceGraphic"/></filter></defs><g transform="translate(-341.129 -1127)"><g transform="matrix(1, 0, 0, 1, 341.13, 1127)" filter="url(#b)"><path d="M26.42,0H48.58A26.42,26.42,0,0,1,75,26.42V48.58A26.42,26.42,0,0,1,48.58,75H26.42A26.42,26.42,0,0,1,0,48.58V26.42A26.42,26.42,0,0,1,26.42,0Z" transform="translate(143.03 70) rotate(45)" fill="url(#a)"/></g><path d="M23.527,25H5.882A5.888,5.888,0,0,1,0,19.115V2.869A2.873,2.873,0,0,1,2.869,0H8.295a7.853,7.853,0,0,1,6.4,3.339,2.369,2.369,0,0,0,1.917,1.072h6.914a5.888,5.888,0,0,1,5.882,5.882v8.822A5.888,5.888,0,0,1,23.527,25ZM2.869,2.941l.072,16.175a2.944,2.944,0,0,0,2.941,2.941H23.527a2.945,2.945,0,0,0,2.941-2.941V10.293a2.945,2.945,0,0,0-2.941-2.941H16.613a5.339,5.339,0,0,1-4.32-2.317,4.907,4.907,0,0,0-4-2.094Z" transform="translate(469.425 1238.002)" fill="#fff"/><path d="M18.352,2.941H12.47A1.47,1.47,0,0,1,12.47,0h5.882a1.47,1.47,0,1,1,0,2.941Z" transform="translate(474.6 1238.002)" fill="#fff"/></g></svg>