<svg xmlns="http://www.w3.org/2000/svg" xmlns:xlink="http://www.w3.org/1999/xlink" width="286.066" height="286.066" viewBox="0 0 286.066 286.066"><defs><linearGradient id="a" x1="0.5" x2="0.5" y2="1" gradientUnits="objectBoundingBox"><stop offset="0" stop-color="#9c56fe"/><stop offset="1" stop-color="#f755eb"/></linearGradient><filter id="b" x="0" y="0" width="286.066" height="286.066" filterUnits="userSpaceOnUse"><feOffset dy="20" input="SourceAlpha"/><feGaussianBlur stdDeviation="30" result="c"/><feFlood flood-opacity="0.161"/><feComposite operator="in" in2="c"/><feComposite in="SourceGraphic"/></filter></defs><g transform="translate(-1077.738 -1127)"><g transform="matrix(1, 0, 0, 1, 1077.74, 1127)" filter="url(#b)"><path d="M26.42,0H48.58A26.42,26.42,0,0,1,75,26.42V48.58A26.42,26.42,0,0,1,48.58,75H26.42A26.42,26.42,0,0,1,0,48.58V26.42A26.42,26.42,0,0,1,26.42,0Z" transform="translate(143.03 70) rotate(45)" fill="url(#a)"/></g><path d="M23.6,30.345H6.743A6.75,6.75,0,0,1,0,23.6V6.743A6.75,6.75,0,0,1,6.743,0H23.6a6.75,6.75,0,0,1,6.743,6.743V23.6A6.75,6.75,0,0,1,23.6,30.345ZM6.743,3.372A3.375,3.375,0,0,0,3.372,6.743V23.6a3.375,3.375,0,0,0,3.372,3.372H23.6A3.376,3.376,0,0,0,26.974,23.6V6.743A3.376,3.376,0,0,0,23.6,3.372Z" transform="translate(1205.598 1234.827)" fill="#fff"/><path d="M16.8,8.372H6.686A1.686,1.686,0,0,1,6.686,5H16.8a1.686,1.686,0,1,1,0,3.372Z" transform="translate(1209.027 1238.257)" fill="#fff"/><path d="M19.173,11.372H5.686A1.686,1.686,0,1,1,5.686,8H19.173a1.686,1.686,0,0,1,0,3.372Z" transform="translate(1208.341 1240.314)" fill="#fff"/><path d="M16.8,14.372H6.686a1.686,1.686,0,1,1,0-3.372H16.8a1.686,1.686,0,1,1,0,3.372Z" transform="translate(1209.027 1242.372)" fill="#fff"/></g></svg>