<svg xmlns="http://www.w3.org/2000/svg" xmlns:xlink="http://www.w3.org/1999/xlink" width="286.066" height="286.066" viewBox="0 0 286.066 286.066"><defs><linearGradient id="a" x1="0.5" x2="0.5" y2="1" gradientUnits="objectBoundingBox"><stop offset="0" stop-color="#f0f55d"/><stop offset="1" stop-color="#33e48b"/></linearGradient><filter id="b" x="0" y="0" width="286.066" height="286.066" filterUnits="userSpaceOnUse"><feOffset dy="20" input="SourceAlpha"/><feGaussianBlur stdDeviation="30" result="c"/><feFlood flood-opacity="0.161"/><feComposite operator="in" in2="c"/><feComposite in="SourceGraphic"/></filter></defs><g transform="translate(-1457.968 -1127)"><g transform="matrix(1, 0, 0, 1, 1457.97, 1127)" filter="url(#b)"><path d="M26.42,0H48.58A26.42,26.42,0,0,1,75,26.42V48.58A26.42,26.42,0,0,1,48.58,75H26.42A26.42,26.42,0,0,1,0,48.58V26.42A26.42,26.42,0,0,1,26.42,0Z" transform="translate(143.03 70) rotate(45)" fill="url(#a)"/></g><g transform="translate(1586.067 1235.068)"><path d="M8.962,29.863A1.493,1.493,0,0,1,7.469,28.37v-4.48H5.976A5.979,5.979,0,0,1,0,17.918V5.973A5.979,5.979,0,0,1,5.974,0H23.9a5.979,5.979,0,0,1,5.974,5.973V17.918A5.98,5.98,0,0,1,23.9,23.891H19.814L9.7,29.666A1.487,1.487,0,0,1,8.962,29.863ZM5.974,2.986A2.989,2.989,0,0,0,2.988,5.973V17.918A2.991,2.991,0,0,0,5.976,20.9H8.964A1.493,1.493,0,0,1,10.457,22.4v3.4l8.221-4.7a1.477,1.477,0,0,1,.739-.2H23.9a2.991,2.991,0,0,0,2.988-2.986V5.973A2.991,2.991,0,0,0,23.9,2.986Z" fill="#fff"/></g><g transform="translate(1596.757 1241.023)"><path d="M10.757,14.518h0a1.345,1.345,0,0,1-1.345-1.344V13.1a5.068,5.068,0,0,1,2.092-4.1,1.288,1.288,0,0,0,.487-1.4,1.242,1.242,0,0,0-.869-.868,1.285,1.285,0,0,0-1.147.218,1.27,1.27,0,0,0-.33.379A1.3,1.3,0,0,1,8.5,7.955h0A1.347,1.347,0,0,1,7.359,5.9a3.971,3.971,0,1,1,5.717,5.274A2.37,2.37,0,0,0,12.1,13.1v.076A1.344,1.344,0,0,1,10.757,14.518Z" transform="translate(-7.159 -3.988)" fill="#fff"/></g><circle cx="1.426" cy="1.426" r="1.426" transform="translate(1598.93 1252.218)" fill="#fff"/></g></svg>