<svg xmlns="http://www.w3.org/2000/svg" xmlns:xlink="http://www.w3.org/1999/xlink" width="286.066" height="286.066" viewBox="0 0 286.066 286.066"><defs><linearGradient id="a" x1="0.5" x2="0.5" y2="1" gradientUnits="objectBoundingBox"><stop offset="0" stop-color="#f0f55d"/><stop offset="1" stop-color="#33e48b"/></linearGradient><filter id="b" x="0" y="0" width="286.066" height="286.066" filterUnits="userSpaceOnUse"><feOffset dy="20" input="SourceAlpha"/><feGaussianBlur stdDeviation="30" result="c"/><feFlood flood-opacity="0.161"/><feComposite operator="in" in2="c"/><feComposite in="SourceGraphic"/></filter></defs><g transform="translate(-1078.945 -513)"><g transform="matrix(1, 0, 0, 1, 1078.94, 513)" filter="url(#b)"><path d="M26.42,0H48.58A26.42,26.42,0,0,1,75,26.42V48.58A26.42,26.42,0,0,1,48.58,75H26.42A26.42,26.42,0,0,1,0,48.58V26.42A26.42,26.42,0,0,1,26.42,0Z" transform="translate(143.03 70) rotate(45)" fill="url(#a)"/></g><path d="M28.789,22.211a1.37,1.37,0,0,1-1.371-1.371.992.992,0,0,0-.979-.979H3.721a.994.994,0,0,0-.979.979A1.371,1.371,0,1,1,0,20.84a3.726,3.726,0,0,1,3.721-3.721H26.439A3.726,3.726,0,0,1,30.16,20.84,1.37,1.37,0,0,1,28.789,22.211Z" transform="translate(1206.944 627.349)" fill="#fff"/><path d="M27.047,7.019H2.371a1.371,1.371,0,0,1-.454-2.664L13.541.274a2.634,2.634,0,0,1,2.337,0L27.5,4.355a1.371,1.371,0,0,1-.455,2.664ZM10.414,4.277H19L14.879,2.828a1.271,1.271,0,0,1-.211-.095c-.069.037-.055.069-.129.095Z" transform="translate(1207.315 621)" fill="#fff"/><path d="M5.371,18.716A1.371,1.371,0,0,1,4,17.345V10.491a1.371,1.371,0,1,1,2.742,0v6.855A1.371,1.371,0,0,1,5.371,18.716Z" transform="translate(1208.428 624.382)" fill="#fff"/><path d="M11.371,18.716A1.371,1.371,0,0,1,10,17.345V10.491a1.371,1.371,0,1,1,2.742,0v6.855A1.371,1.371,0,0,1,11.371,18.716Z" transform="translate(1210.653 624.382)" fill="#fff"/><path d="M21.822,22.862H5.371a1.371,1.371,0,0,1,0-2.742H21.822a1.371,1.371,0,0,1,0,2.742Z" transform="translate(1208.428 628.462)" fill="#fff"/><path d="M27.047,8.862H2.371a1.371,1.371,0,1,1,0-2.742H27.047a1.371,1.371,0,1,1,0,2.742Z" transform="translate(1207.315 623.27)" fill="#fff"/></g></svg>