<svg xmlns="http://www.w3.org/2000/svg" xmlns:xlink="http://www.w3.org/1999/xlink" width="286.066" height="286.066" viewBox="0 0 286.066 286.066"><defs><linearGradient id="a" x1="0.5" x2="0.5" y2="1" gradientUnits="objectBoundingBox"><stop offset="0" stop-color="#ffc107"/><stop offset="1" stop-color="#f96cd6"/></linearGradient><filter id="b" x="0" y="0" width="286.066" height="286.066" filterUnits="userSpaceOnUse"><feOffset dy="20" input="SourceAlpha"/><feGaussianBlur stdDeviation="30" result="c"/><feFlood flood-opacity="0.161"/><feComposite operator="in" in2="c"/><feComposite in="SourceGraphic"/></filter></defs><g transform="translate(-1458 -513)"><g transform="matrix(1, 0, 0, 1, 1458, 513)" filter="url(#b)"><path d="M26.42,0H48.58A26.42,26.42,0,0,1,75,26.42V48.58A26.42,26.42,0,0,1,48.58,75H26.42A26.42,26.42,0,0,1,0,48.58V26.42A26.42,26.42,0,0,1,26.42,0Z" transform="translate(143.03 70) rotate(45)" fill="url(#a)"/></g><g transform="translate(1586 621)"><path d="M9,29.99a1.5,1.5,0,0,1-1.5-1.5v-4.5H6a6.006,6.006,0,0,1-6-6V6A6.006,6.006,0,0,1,6,0H24a6.006,6.006,0,0,1,6,6v12a6.006,6.006,0,0,1-6,6H19.9l-10.154,5.8A1.5,1.5,0,0,1,9,29.99ZM6,3A3,3,0,0,0,3,6v12a3,3,0,0,0,3,3H9a1.5,1.5,0,0,1,1.5,1.5v3.414l8.256-4.716a1.5,1.5,0,0,1,.744-.2H24a3,3,0,0,0,3-3V6a3,3,0,0,0-3-3Z" fill="#fff"/></g><path d="M14.349,5.883A1.351,1.351,0,0,0,13,7.234V15.2a1.351,1.351,0,0,0,2.7,0V7.233a1.35,1.35,0,0,0-1.351-1.35Z" transform="translate(1586 621)" fill="#fff"/><circle cx="1.431" cy="1.431" r="1.431" transform="translate(1598.918 638.222)" fill="#fff"/></g></svg>