<svg xmlns="http://www.w3.org/2000/svg" xmlns:xlink="http://www.w3.org/1999/xlink" width="286.066" height="286.066" viewBox="0 0 286.066 286.066"><defs><linearGradient id="a" x1="0.5" x2="0.5" y2="1" gradientUnits="objectBoundingBox"><stop offset="0" stop-color="#24bfb6"/><stop offset="1" stop-color="#41e595"/></linearGradient><filter id="b" x="0" y="0" width="286.066" height="286.066" filterUnits="userSpaceOnUse"><feOffset dy="20" input="SourceAlpha"/><feGaussianBlur stdDeviation="30" result="c"/><feFlood flood-opacity="0.161"/><feComposite operator="in" in2="c"/><feComposite in="SourceGraphic"/></filter></defs><g transform="translate(-341.129 -655)"><g transform="matrix(1, 0, 0, 1, 341.13, 655)" filter="url(#b)"><path d="M26.42,0H48.58A26.42,26.42,0,0,1,75,26.42V48.58A26.42,26.42,0,0,1,48.58,75H26.42A26.42,26.42,0,0,1,0,48.58V26.42A26.42,26.42,0,0,1,26.42,0Z" transform="translate(143.03 70) rotate(45)" fill="url(#a)"/></g><path d="M23.662,30.422H6.76A6.767,6.767,0,0,1,0,23.662V6.76A6.767,6.767,0,0,1,6.76,0h16.9a6.767,6.767,0,0,1,6.76,6.76v16.9A6.767,6.767,0,0,1,23.662,30.422ZM6.76,3.38A3.384,3.384,0,0,0,3.38,6.76v16.9a3.384,3.384,0,0,0,3.38,3.38h16.9a3.385,3.385,0,0,0,3.38-3.38V6.76a3.385,3.385,0,0,0-3.38-3.38Z" transform="translate(469.129 763)" fill="#fff"/><path d="M16.831,8.38H6.69A1.69,1.69,0,0,1,6.69,5H16.831a1.69,1.69,0,1,1,0,3.38Z" transform="translate(472.579 766.45)" fill="#fff"/><path d="M19.211,11.38H5.69A1.69,1.69,0,1,1,5.69,8H19.211a1.69,1.69,0,0,1,0,3.38Z" transform="translate(471.89 768.521)" fill="#fff"/><path d="M16.831,14.38H6.69a1.69,1.69,0,1,1,0-3.38H16.831a1.69,1.69,0,1,1,0,3.38Z" transform="translate(472.579 770.591)" fill="#fff"/></g></svg>