<svg xmlns="http://www.w3.org/2000/svg" xmlns:xlink="http://www.w3.org/1999/xlink" width="286.066" height="286.066" viewBox="0 0 286.066 286.066"><defs><linearGradient id="a" x1="0.5" x2="0.5" y2="1" gradientUnits="objectBoundingBox"><stop offset="0" stop-color="#9c56fe"/><stop offset="1" stop-color="#fd9777"/></linearGradient><filter id="b" x="0" y="0" width="286.066" height="286.066" filterUnits="userSpaceOnUse"><feOffset dy="20" input="SourceAlpha"/><feGaussianBlur stdDeviation="30" result="c"/><feFlood flood-opacity="0.161"/><feComposite operator="in" in2="c"/><feComposite in="SourceGraphic"/></filter></defs><g transform="translate(-708.413 -655)"><g transform="matrix(1, 0, 0, 1, 708.41, 655)" filter="url(#b)"><path d="M26.42,0H48.58A26.42,26.42,0,0,1,75,26.42V48.58A26.42,26.42,0,0,1,48.58,75H26.42A26.42,26.42,0,0,1,0,48.58V26.42A26.42,26.42,0,0,1,26.42,0Z" transform="translate(143.03 70) rotate(45)" fill="url(#a)"/></g><g transform="translate(835.719 764.968)"><path d="M615.678,812.374H587.7a1.851,1.851,0,0,1-1.849-1.849v-17.6a1.851,1.851,0,0,1,1.849-1.849h27.978a1.852,1.852,0,0,1,1.849,1.849v17.6A1.85,1.85,0,0,1,615.678,812.374Zm-27.292-2.534h26.607V793.611H588.386Z" transform="translate(-585.852 -791.077)" fill="#fff"/><g transform="translate(9.043 24.498)"><path d="M612.449,832.282H601.394a1.267,1.267,0,0,1-1.267-1.267h0a1.267,1.267,0,0,1,1.267-1.267h11.055a1.267,1.267,0,0,1,1.267,1.267h0A1.267,1.267,0,0,1,612.449,832.282Z" transform="translate(-600.127 -829.748)" fill="#fff"/></g></g></g></svg>