<svg xmlns="http://www.w3.org/2000/svg" xmlns:xlink="http://www.w3.org/1999/xlink" width="286.066" height="286.066" viewBox="0 0 286.066 286.066"><defs><linearGradient id="a" x1="0.5" x2="0.5" y2="1" gradientUnits="objectBoundingBox"><stop offset="0" stop-color="#f48763"/><stop offset="1" stop-color="#fca040"/></linearGradient><filter id="b" x="0" y="0" width="286.066" height="286.066" filterUnits="userSpaceOnUse"><feOffset dy="20" input="SourceAlpha"/><feGaussianBlur stdDeviation="30" result="c"/><feFlood flood-opacity="0.161"/><feComposite operator="in" in2="c"/><feComposite in="SourceGraphic"/></filter></defs><g transform="translate(-1078.594 -655)"><g transform="matrix(1, 0, 0, 1, 1078.59, 655)" filter="url(#b)"><path d="M26.42,0H48.58A26.42,26.42,0,0,1,75,26.42V48.58A26.42,26.42,0,0,1,48.58,75H26.42A26.42,26.42,0,0,1,0,48.58V26.42A26.42,26.42,0,0,1,26.42,0Z" transform="translate(143.03 70) rotate(45)" fill="url(#a)"/></g><rect width="47.538" height="47.538" transform="translate(1197.594 754)" fill="none"/><path d="M20.37,27.971H8.486a1.486,1.486,0,1,1,0-2.971H20.37a1.486,1.486,0,1,1,0,2.971Z" transform="translate(1200.992 766.139)" fill="#fff"/><g transform="translate(1207.993 762.913)"><path d="M8.485,30.707A1.485,1.485,0,0,1,7.077,28.75l5.251-15.756a1.478,1.478,0,0,1,.824-.894L20.506,8.95a1.481,1.481,0,0,1,1.636.315l6.3,6.3a1.486,1.486,0,0,1,.315,1.636l-3.151,7.353a1.489,1.489,0,0,1-.9.824L8.955,30.631A1.465,1.465,0,0,1,8.485,30.707Zm6.45-16.139-4.1,12.3,12.3-4.1,2.493-5.816-4.88-4.88Z" transform="translate(-7 -4.626)" fill="#fff"/><path d="M9.9,25.173a1.486,1.486,0,0,1-1.05-2.536l6.3-6.3a1.485,1.485,0,0,1,2.1,2.1l-6.3,6.3A1.481,1.481,0,0,1,9.9,25.173Z" transform="translate(-6.314 -1.193)" fill="#fff"/><path d="M26.79,17.375a1.486,1.486,0,0,1-1.05-.434l-8.4-8.4a1.485,1.485,0,1,1,2.1-2.1l8.4,8.4a1.486,1.486,0,0,1-1.049,2.537Z" transform="translate(-2.194 -6)" fill="#fff"/></g></g></svg>