<svg xmlns="http://www.w3.org/2000/svg" xmlns:xlink="http://www.w3.org/1999/xlink" width="286.066" height="286.066" viewBox="0 0 286.066 286.066"><defs><linearGradient id="a" x1="0.5" x2="0.5" y2="1" gradientUnits="objectBoundingBox"><stop offset="0" stop-color="#e46bd7"/><stop offset="1" stop-color="#fd60af"/></linearGradient><filter id="b" x="0" y="0" width="286.066" height="286.066" filterUnits="userSpaceOnUse"><feOffset dy="20" input="SourceAlpha"/><feGaussianBlur stdDeviation="30" result="c"/><feFlood flood-opacity="0.161"/><feComposite operator="in" in2="c"/><feComposite in="SourceGraphic"/></filter></defs><g transform="translate(-1458 -655)"><g transform="matrix(1, 0, 0, 1, 1458, 655)" filter="url(#b)"><path d="M26.42,0H48.58A26.42,26.42,0,0,1,75,26.42V48.58A26.42,26.42,0,0,1,48.58,75H26.42A26.42,26.42,0,0,1,0,48.58V26.42A26.42,26.42,0,0,1,26.42,0Z" transform="translate(143.03 70) rotate(45)" fill="url(#a)"/></g><path d="M30.414,6.7,16.868.25a2.574,2.574,0,0,0-2.219,0L1.105,6.7a1.922,1.922,0,0,0-.142,3.406v6.577a1.4,1.4,0,1,0,2.805,0V11.471L5.5,12.3l-.035,4.272A2.6,2.6,0,0,0,6.937,18.9l7.709,3.669a2.567,2.567,0,0,0,2.223,0l7.655-3.645A2.6,2.6,0,0,0,26,16.594V14.7a1.4,1.4,0,0,0-2.805,0v1.75l-7.434,3.539L8.271,16.427l.022-2.8,6.511,3.1a2.2,2.2,0,0,0,.954.219,2.227,2.227,0,0,0,.955-.219l13.7-6.524a1.939,1.939,0,0,0,0-3.5ZM15.758,14.075,3.954,8.454,15.76,2.831,27.565,8.452Z" transform="translate(1585 767)" fill="#fff"/></g></svg>