<svg xmlns="http://www.w3.org/2000/svg" xmlns:xlink="http://www.w3.org/1999/xlink" width="286.066" height="286.066" viewBox="0 0 286.066 286.066"><defs><linearGradient id="a" x1="0.5" x2="0.5" y2="1" gradientUnits="objectBoundingBox"><stop offset="0" stop-color="#9c56fe"/><stop offset="1" stop-color="#e16cdb"/></linearGradient><filter id="b" x="0" y="0" width="286.066" height="286.066" filterUnits="userSpaceOnUse"><feOffset dy="20" input="SourceAlpha"/><feGaussianBlur stdDeviation="30" result="c"/><feFlood flood-opacity="0.161"/><feComposite operator="in" in2="c"/><feComposite in="SourceGraphic"/></filter></defs><g transform="translate(-341.096 -891)"><g transform="matrix(1, 0, 0, 1, 341.1, 891)" filter="url(#b)"><path d="M26.42,0H48.58A26.42,26.42,0,0,1,75,26.42V48.58A26.42,26.42,0,0,1,48.58,75H26.42A26.42,26.42,0,0,1,0,48.58V26.42A26.42,26.42,0,0,1,26.42,0Z" transform="translate(143.03 70) rotate(45)" fill="url(#a)"/></g><path d="M9.038,30.125a1.506,1.506,0,0,1-1.506-1.506V24.1H6.025A6.031,6.031,0,0,1,0,18.075V6.025A6.031,6.031,0,0,1,6.025,0H24.1a6.031,6.031,0,0,1,6.025,6.025v12.05A6.031,6.031,0,0,1,24.1,24.1H19.982l-10.2,5.826A1.51,1.51,0,0,1,9.038,30.125ZM6.025,3.013A3.016,3.016,0,0,0,3.013,6.025v12.05a3.016,3.016,0,0,0,3.013,3.013H9.038a1.506,1.506,0,0,1,1.506,1.506v3.43l8.29-4.737a1.5,1.5,0,0,1,.747-.2H24.1a3.017,3.017,0,0,0,3.012-3.013V6.025A3.017,3.017,0,0,0,24.1,3.013Z" transform="translate(469.066 1000.938)" fill="#fff"/><circle cx="1.506" cy="1.506" r="1.506" transform="translate(478.104 1011.481)" fill="#fff"/><circle cx="1.506" cy="1.506" r="1.506" transform="translate(482.623 1011.481)" fill="#fff"/><circle cx="1.506" cy="1.506" r="1.506" transform="translate(487.142 1011.481)" fill="#fff"/></g></svg>