<svg width="52" height="52" viewBox="0 0 52 52" fill="none" xmlns="http://www.w3.org/2000/svg">
<g clip-path="url(#clip0_101_7)">
<path d="M26.0617 51.9271C40.4149 51.9271 52.0505 40.2915 52.0505 25.9383C52.0505 11.5851 40.4149 -0.0504761 26.0617 -0.0504761C11.7085 -0.0504761 0.072937 11.5851 0.072937 25.9383C0.072937 40.2915 11.7085 51.9271 26.0617 51.9271Z" fill="white"/>
<path d="M25.9962 47.7483C37.9796 47.7483 47.6941 38.0339 47.6941 26.0505C47.6941 14.0671 37.9796 4.35266 25.9962 4.35266C14.0129 4.35266 4.2984 14.0671 4.2984 26.0505C4.2984 38.0339 14.0129 47.7483 25.9962 47.7483Z" fill="#6835F9"/>
<path fill-rule="evenodd" clip-rule="evenodd" d="M42.3627 26.0505C42.3627 35.0897 35.035 42.4174 25.9958 42.4174C16.9566 42.4174 9.62891 35.0897 9.62891 26.0505C9.62891 17.0113 16.9566 9.68359 25.9958 9.68359C35.035 9.68359 42.3627 17.0113 42.3627 26.0505ZM27.0397 20.7273C27.0397 21.2163 26.9318 21.6802 26.7386 22.0963L26.7404 22.0965C26.7404 22.0965 31.3343 20.5122 34.0279 25.0332C34.0279 25.0332 36.3884 30.2201 32.1499 32.981C32.1499 32.981 29.3235 35.1751 25.6817 33.4299C25.6817 33.4299 24.4677 32.8314 23.4707 29.9714C23.4707 29.9714 22.9881 28.3421 21.5759 28.2262C21.5759 28.2262 18.8001 27.9101 19.1985 30.9365C19.1985 30.9365 19.7297 33.1643 22.2568 32.2496C22.2568 32.2496 23.3211 31.4846 23.7027 31.9504C23.7027 31.9504 24.3087 32.9118 23.2369 33.4299C23.2369 33.4299 21.69 34.5934 19.7615 33.7292C19.7615 33.7292 18.05 33.1437 17.5506 30.5624C17.5506 30.5624 17.4654 28.4669 19.067 27.36C18.3212 27.0278 17.8012 26.2802 17.8012 25.4111C17.8012 24.2334 18.7559 23.2787 19.9336 23.2787C21.1113 23.2787 22.066 24.2334 22.066 25.4111C22.066 25.8925 21.9064 26.3367 21.6373 26.6936C21.6714 26.6942 21.7058 26.695 21.7405 26.6961C21.7405 26.6961 23.8317 26.655 24.7838 29.2157C24.7838 29.2157 25.4572 31.5594 26.342 32.0083C26.342 32.0083 28.6315 33.4355 31.1791 31.7596C31.1791 31.7596 34.6339 29.6515 32.4267 25.426C32.4267 25.426 30.2195 21.7729 25.9809 24.1298C25.9809 24.1298 25.3824 24.5787 25.0214 25.1024C25.0214 25.1024 24.7838 25.7702 24.174 25.8544C24.174 25.8544 23.5381 25.976 23.351 25.34C23.351 25.34 23.1626 24.6847 23.8232 23.9818L23.785 23.982C21.9875 23.982 20.5303 22.5248 20.5303 20.7273C20.5303 18.9298 21.9875 17.4727 23.785 17.4727C25.5825 17.4727 27.0397 18.9298 27.0397 20.7273Z" fill="white"/>
</g>
<defs>
<clipPath id="clip0_101_7">
<rect width="52" height="52" fill="white"/>
</clipPath>
</defs>
</svg>
