<svg id="Cuboid_logo" xmlns="http://www.w3.org/2000/svg" width="125.462" height="32" viewBox="0 0 125.462 32">
  <g id="Logo">
    <rect id="Shape" width="32" height="32" fill="none"/>
    <rect id="Shape-2" data-name="Shape" width="13.333" height="13.333" transform="translate(16 2.667)" fill="#a0a0a0" stroke="#202020" stroke-linejoin="round" stroke-miterlimit="10" stroke-width="1"/>
    <path id="Path" d="M13.333,0,0,13.333,13.333,26.667,26.667,13.333V0Z" transform="translate(2.667 2.667)" fill="none" stroke="#202020" stroke-linejoin="round" stroke-miterlimit="10" stroke-width="1"/>
    <rect id="Shape-3" data-name="Shape" width="13.333" height="13.333" transform="translate(2.667 16)" fill="#202020" stroke="#202020" stroke-linejoin="round" stroke-miterlimit="10" stroke-width="1"/>
    <path id="Path-2" data-name="Path" d="M0,13.333,13.333,0" transform="translate(16 2.667)" fill="none" stroke="#202020" stroke-miterlimit="10" stroke-width="1"/>
  </g>
  <path id="Cuboid" d="M68.157,12.244c0-3.934,2.666-6.73,5.927-6.73A4.517,4.517,0,0,1,78.3,7.766h.311V.517h2.848v18.12h-2.8V16.722H78.3A4.483,4.483,0,0,1,74.084,19C70.823,19,68.157,16.178,68.157,12.244Zm-21.02,0a6.627,6.627,0,1,1,13.253,0,6.628,6.628,0,1,1-13.253,0Zm-11.8,4.478h-.363v1.915h-2.8V.517h2.848V7.766h.31a4.546,4.546,0,0,1,4.219-2.253c3.288,0,5.927,2.8,5.927,6.73S42.841,19,39.553,19A4.512,4.512,0,0,1,35.334,16.722ZM0,11.623V7.533C0,2.925,2.8.156,7.3.156c4.478,0,6.963,2.588,6.963,6.548v.544h-3V6.73c0-2.3-1.268-3.857-3.96-3.857C4.582,2.874,3,4.685,3,7.4v4.349c0,2.821,1.527,4.53,4.3,4.53,2.821,0,3.96-1.579,3.96-3.856v-.518h3V12.4c0,4.012-2.381,6.6-6.963,6.6C2.848,19,0,16.385,0,11.623Zm16.618,1.89V5.876h2.848v7.377a2.8,2.8,0,0,0,3.08,3.106c2.227,0,3.521-1.4,3.521-3.857V5.876h2.848V18.637h-2.8V16.515h-.363c-.544,1.191-1.734,2.33-4.168,2.33C18.845,18.845,16.618,16.929,16.618,13.513ZM62.85,18.637V5.876H65.7V18.637ZM62.125,2.071A2.063,2.063,0,0,1,64.273,0,2.041,2.041,0,0,1,66.4,2.071a2.057,2.057,0,0,1-2.123,2.071A2.078,2.078,0,0,1,62.125,2.071Z" transform="translate(44 6)" fill="#202020"/>
</svg>
