<svg xmlns="http://www.w3.org/2000/svg" xmlns:xlink="http://www.w3.org/1999/xlink" width="46.768" height="50.169" viewBox="0 0 46.768 50.169"><defs><linearGradient id="a" x1="0.5" x2="1" y2="0.654" gradientUnits="objectBoundingBox"><stop offset="0" stop-color="#9c56fe"/><stop offset="1" stop-color="#e16cdb"/></linearGradient></defs><g transform="translate(0 0)"><path d="M154.744-110.084a5.765,5.765,0,0,1,2.877.772l11,6.347a5.772,5.772,0,0,1,2.877,4.983v12.7a5.77,5.77,0,0,1-2.879,4.983l-10.994,6.347a5.765,5.765,0,0,1-2.877.772,5.765,5.765,0,0,1-2.877-.772L140.873-80.3A5.767,5.767,0,0,1,138-85.286v-12.7a5.767,5.767,0,0,1,2.877-4.983l10.994-6.347a5.765,5.765,0,0,1,2.877-.772m0-6.635a12.391,12.391,0,0,0-6.195,1.659l-10.994,6.349a12.383,12.383,0,0,0-6.195,10.728v12.7a12.383,12.383,0,0,0,6.195,10.728l10.994,6.349a12.391,12.391,0,0,0,6.195,1.659,12.385,12.385,0,0,0,6.195-1.659l10.994-6.349a12.385,12.385,0,0,0,6.2-10.728v-12.7a12.385,12.385,0,0,0-6.2-10.728l-10.994-6.349a12.385,12.385,0,0,0-6.195-1.659Z" transform="translate(-131.361 116.719)" fill="url(#a)"/><g transform="translate(13.316 14.483)"><path d="M147.982-88.968a10.612,10.612,0,0,1-10.6-10.6,10.612,10.612,0,0,1,10.6-10.6v5.529a5.078,5.078,0,0,0-5.071,5.073,5.078,5.078,0,0,0,5.071,5.071,5.065,5.065,0,0,0,4.222-2.258l4.6,3.07A10.592,10.592,0,0,1,147.982-88.968Z" transform="translate(-137.382 110.17)" fill="url(#a)"/></g></g></svg>