<svg xmlns="http://www.w3.org/2000/svg" xmlns:xlink="http://www.w3.org/1999/xlink" width="440" height="440" viewBox="0 0 440 440"><defs><filter id="a" x="0" y="0" width="440" height="440" filterUnits="userSpaceOnUse"><feOffset dy="30" input="SourceAlpha"/><feGaussianBlur stdDeviation="40" result="b"/><feFlood flood-opacity="0.071"/><feComposite operator="in" in2="b"/><feComposite in="SourceGraphic"/></filter><linearGradient id="c" x1="0.061" y1="0.085" x2="0.864" y2="0.867" gradientUnits="objectBoundingBox"><stop offset="0" stop-color="#e46bd7"/><stop offset="1" stop-color="#fd60af"/></linearGradient></defs><g transform="translate(-1238 -670)"><g transform="translate(-56.824 89)"><g transform="translate(1414.824 671)"><g transform="translate(0 0)"><g transform="translate(0 0)"><g transform="matrix(1, 0, 0, 1, -120, -90)" filter="url(#a)"><path d="M49.819,0H91.6a49.819,49.819,0,0,1,49.819,49.819V91.6A49.819,49.819,0,0,1,91.6,141.421H49.819A49.819,49.819,0,0,1,0,91.6V49.819A49.819,49.819,0,0,1,49.819,0Z" transform="translate(220 90) rotate(45)" fill="#fff"/></g></g></g></g><path d="M57.829,2.918H14.457C6.484,2.918,0,9.074,0,16.644V44.1c0,7.57,6.484,13.726,14.457,13.726H57.829c7.973,0,14.457-6.156,14.457-13.726V16.644C72.286,9.077,65.8,2.918,57.829,2.918Zm0,6.863a7.428,7.428,0,0,1,4.2,1.3L36.143,29.512,10.257,11.081a7.428,7.428,0,0,1,4.2-1.3ZM14.457,50.958a7.181,7.181,0,0,1-1.063-.1l10.46-7.446a3.316,3.316,0,0,0,.723-4.8,3.74,3.74,0,0,0-5.056-.686L7.666,46.36A6.477,6.477,0,0,1,7.229,44.1V17.5L33.975,36.546a3.769,3.769,0,0,0,4.337,0L65.058,17.5V44.1a6.507,6.507,0,0,1-.437,2.265L52.765,37.919a3.74,3.74,0,0,0-5.056.686,3.316,3.316,0,0,0,.723,4.8l10.46,7.446a7.784,7.784,0,0,1-1.063.1H14.457Z" transform="translate(1482.563 741.082)" fill="url(#c)"/></g></g></svg>