<svg xmlns="http://www.w3.org/2000/svg" xmlns:xlink="http://www.w3.org/1999/xlink" width="440" height="440" viewBox="0 0 440 440"><defs><filter id="a" x="0" y="0" width="440" height="440" filterUnits="userSpaceOnUse"><feOffset dy="30" input="SourceAlpha"/><feGaussianBlur stdDeviation="40" result="b"/><feFlood flood-opacity="0.071"/><feComposite operator="in" in2="b"/><feComposite in="SourceGraphic"/></filter><linearGradient id="c" x1="0.5" x2="0.5" y2="1" gradientUnits="objectBoundingBox"><stop offset="0" stop-color="#f48763"/><stop offset="1" stop-color="#fca040"/></linearGradient></defs><g transform="translate(-795.705 -670)"><g transform="translate(915.705 760)"><g transform="matrix(1, 0, 0, 1, -120, -90)" filter="url(#a)"><path d="M49.819,0H91.6a49.819,49.819,0,0,1,49.819,49.819V91.6A49.819,49.819,0,0,1,91.6,141.421H49.819A49.819,49.819,0,0,1,0,91.6V49.819A49.819,49.819,0,0,1,49.819,0Z" transform="translate(220 90) rotate(45)" fill="#fff"/></g></g><path d="M70.242,6.956a3.146,3.146,0,0,1,3.206-3.087C88.472,3.868,100.7,15.64,100.7,30.11a3.208,3.208,0,0,1-6.412,0c0-11.065-9.349-20.067-20.84-20.067A3.146,3.146,0,0,1,70.242,6.956ZM98.822,48.9a6.011,6.011,0,0,1,0,8.734L94.288,62a19.783,19.783,0,0,1-27.2,0L38.607,32.281A18.034,18.034,0,0,1,38.7,6.175L43.23,1.809A6.5,6.5,0,0,1,47.764,0h.006A6.484,6.484,0,0,1,52.3,1.812l4.534,4.362a12.045,12.045,0,0,1,0,17.465l-.106.1L76.26,44.426a13.192,13.192,0,0,1,18.028.1Zm-4.533,4.365L89.755,48.9a6.75,6.75,0,0,0-9.07,0l-2.267,2.183a3.6,3.6,0,0,1-2.344.9,3.286,3.286,0,0,1-2.3-1.01L49.925,25.717a3.008,3.008,0,0,1,.106-4.264l2.27-2.183a6.023,6.023,0,0,0,0-8.731L47.764,6.175,43.23,10.54A12.04,12.04,0,0,0,43.23,28L71.707,57.723a13.176,13.176,0,0,0,18.047-.09ZM73.448,22.392a7.878,7.878,0,0,1,8.015,7.718,3.208,3.208,0,0,0,6.412,0c0-7.66-6.473-13.893-14.428-13.893a3.089,3.089,0,1,0,0,6.175Z" transform="translate(948.782 826.291)" fill="url(#c)"/></g></svg>