<svg xmlns="http://www.w3.org/2000/svg" xmlns:xlink="http://www.w3.org/1999/xlink" width="440" height="440" viewBox="0 0 440 440"><defs><filter id="a" x="0" y="0" width="440" height="440" filterUnits="userSpaceOnUse"><feOffset dy="30" input="SourceAlpha"/><feGaussianBlur stdDeviation="40" result="b"/><feFlood flood-opacity="0.071"/><feComposite operator="in" in2="b"/><feComposite in="SourceGraphic"/></filter><linearGradient id="c" x1="0.094" y1="0.044" x2="0.693" y2="0.782" gradientUnits="objectBoundingBox"><stop offset="0" stop-color="#9c56fe"/><stop offset="1" stop-color="#e16cdb"/></linearGradient></defs><g transform="translate(-378 -670)"><g transform="translate(-114 76)"><g transform="translate(612 684)"><g transform="matrix(1, 0, 0, 1, -120, -90)" filter="url(#a)"><path d="M49.819,0H91.6a49.819,49.819,0,0,1,49.819,49.819V91.6A49.819,49.819,0,0,1,91.6,141.421H49.819A49.819,49.819,0,0,1,0,91.6V49.819A49.819,49.819,0,0,1,49.819,0Z" transform="translate(220 90) rotate(45)" fill="#fff"/></g></g><path d="M90.311,70.279A3.724,3.724,0,0,1,88.5,69.81a3.438,3.438,0,0,1-1.8-3v-10.4H83.082c-7.973,0-14.457-6.222-14.457-13.872V14.79C68.625,7.14,75.109.918,83.082.918h43.372c7.973,0,14.457,6.222,14.457,13.872V42.534c0,7.65-6.484,13.872-14.457,13.872h-9.882L92.107,69.821A3.7,3.7,0,0,1,90.311,70.279ZM83.082,7.854a7.094,7.094,0,0,0-7.229,6.936V42.534a7.094,7.094,0,0,0,7.229,6.936h7.229a3.542,3.542,0,0,1,3.614,3.468v7.9l19.893-10.907a3.744,3.744,0,0,1,1.793-.458h10.843a7.1,7.1,0,0,0,7.229-6.936V14.79a7.1,7.1,0,0,0-7.229-6.936H83.082ZM93.925,32.13a3.471,3.471,0,1,0-3.614-3.468A3.545,3.545,0,0,0,93.925,32.13Zm10.843,0a3.471,3.471,0,1,0-3.614-3.468A3.545,3.545,0,0,0,104.768,32.13Zm10.843,0A3.471,3.471,0,1,0,112,28.662,3.545,3.545,0,0,0,115.611,32.13Z" transform="translate(607.375 748.082)" fill="url(#c)"/></g></g></svg>