<svg xmlns="http://www.w3.org/2000/svg" width="114.025" height="111.411" viewBox="0 0 114.025 111.411">
  <g id="Group_2345" data-name="Group 2345" transform="translate(-412 -295.891)">
    <circle id="Ellipse_6" data-name="Ellipse 6" cx="23.089" cy="23.089" r="23.089" transform="translate(479.848 361.124)" fill="#fff" opacity="0.15"/>
    <path id="Path_4041" data-name="Path 4041" d="M739.353-965.441a17.145,17.145,0,0,0-1.775-2.15" transform="translate(-251.375 1340.679)" fill="none" stroke="#fff" stroke-linecap="round" stroke-linejoin="round" stroke-width="4"/>
    <g id="Group_2340" data-name="Group 2340">
      <path id="Path_4042" data-name="Path 4042" d="M282.375-1026.015a17.145,17.145,0,0,0-2.851-1.157l-12.017-3.664h-.452v4.735a7.173,7.173,0,0,1-7.173,7.173h-7.521a7.173,7.173,0,0,1-7.173-7.173v-4.6l-12.3,3.616a17.116,17.116,0,0,0-12.29,16.422v3.212h71.052v-3.346a17.106,17.106,0,0,0-.554-4.324" transform="translate(199.404 1395.825)" fill="none" stroke="#fff" stroke-linecap="round" stroke-linejoin="round" stroke-width="4"/>
      <path id="Path_4043" data-name="Path 4043" d="M419.813-1092.128h7.521a7.173,7.173,0,0,0,7.173-7.173v-15.485a20.2,20.2,0,0,1-10.934,3.194h0a20.2,20.2,0,0,1-10.934-3.194v15.485A7.173,7.173,0,0,0,419.813-1092.128Z" transform="translate(31.952 1469.024)" fill="none" stroke="#fff" stroke-linecap="round" stroke-linejoin="round" stroke-width="4"/>
      <path id="Path_4044" data-name="Path 4044" d="M339.516-1404.418v.835a21.755,21.755,0,0,1,.159-2.623A10.267,10.267,0,0,0,339.516-1404.418Z" transform="translate(95.713 1723.125)" fill="none" stroke="#fff" stroke-linecap="round" stroke-linejoin="round" stroke-width="4"/>
      <path id="Path_4045" data-name="Path 4045" d="M339.516-1368.133a20.282,20.282,0,0,0,9.364,17.1,20.2,20.2,0,0,0,10.934,3.194h0a20.2,20.2,0,0,0,10.934-3.194,20.282,20.282,0,0,0,9.364-17.1v-17.591H348.223a8.707,8.707,0,0,0-8.707,8.707" transform="translate(95.713 1705.267)" fill="none" stroke="#fff" stroke-linecap="round" stroke-linejoin="round" stroke-width="4"/>
      <path id="Path_4046" data-name="Path 4046" d="M365.93-1532.409h15.589a11.042,11.042,0,0,0,11.042-11.042h-7.818a21.443,21.443,0,0,0,2.73-10.5H361.059a21.546,21.546,0,0,0-21.383,18.92,21.754,21.754,0,0,0-.159,2.623h0v10.732" transform="translate(95.713 1851.951)" fill="none" stroke="#fff" stroke-linecap="round" stroke-linejoin="round" stroke-width="4"/>
      <circle id="Ellipse_6-2" data-name="Ellipse 6" cx="14.322" cy="14.322" r="14.322" transform="translate(412 295.891)" fill="#fff" opacity="0.15"/>
    </g>
  </g>
</svg>
