<svg xmlns="http://www.w3.org/2000/svg" width="107.152" height="111.411" viewBox="0 0 107.152 111.411">
  <g id="Group_2346" data-name="Group 2346" transform="translate(-1177 -295.891)">
    <path id="Path_66" data-name="Path 66" d="M23.089,0A23.089,23.089,0,1,1,0,23.089,23.089,23.089,0,0,1,23.089,0Z" transform="translate(1237.975 361.124)" fill="#fff" opacity="0.15"/>
    <g id="Group_2342" data-name="Group 2342">
      <path id="Path_4026" data-name="Path 4026" d="M-1969.489-1318.25q.894-.957,1.856-1.846" transform="translate(3163.099 1651.245)" fill="none" stroke="#fff" stroke-linecap="round" stroke-linejoin="round" stroke-width="4"/>
      <path id="Path_4027" data-name="Path 4027" d="M-2026.022-1389.713a35.526,35.526,0,0,1,17.177-4.4,35.687,35.687,0,0,1,35.687,35.687,35.687,35.687,0,0,1-35.687,35.687,35.687,35.687,0,0,1-35.687-35.687,35.519,35.519,0,0,1,5.491-19.03" transform="translate(3228.532 1715.782)" fill="none" stroke="#fff" stroke-linecap="round" stroke-linejoin="round" stroke-width="4"/>
      <line id="Line_1" data-name="Line 1" y2="23.671" transform="translate(1218.816 298)" fill="none" stroke="#fff" stroke-linecap="round" stroke-linejoin="round" stroke-width="4"/>
      <path id="Path_4028" data-name="Path 4028" d="M-1751.244-1551.656h-21.4v-13.688h21.4l-5.449,6.844Z" transform="translate(2991.465 1865.089)" fill="none" stroke="#fff" stroke-linecap="round" stroke-linejoin="round" stroke-width="4"/>
      <path id="Path_4029" data-name="Path 4029" d="M-1985.494-1338.64a4,4,0,0,1,.138,4.9,6.907,6.907,0,0,1-4.484,2.592,28.79,28.79,0,0,1-5.3.225,47.387,47.387,0,0,0-4.95.257,2.8,2.8,0,0,0-2.239,1c-.6,1.018.218,2.253.917,3.208a19.332,19.332,0,0,1,2.969,6.069,2.169,2.169,0,0,1-.121,1.977c-.762.913-2.5.255-3.267,1.162-.676.8-.007,1.974.494,2.893a8.291,8.291,0,0,1,.79,5.78,1.115,1.115,0,0,1-.916-.336c-1.6-1.278-2.874-2.932-4.448-4.248s-3.635-2.3-5.639-1.865a8.992,8.992,0,0,0-3.987,2.589c-2.008,1.891-4.1,3.911-4.88,6.555-.207.7-.316,1.427-.569,2.11a7.158,7.158,0,0,1-4.417,3.969,21.2,21.2,0,0,1-6.037.931,3.311,3.311,0,0,1-1.788-.231" transform="translate(3218.677 1667.415)" fill="none" stroke="#fff" stroke-linecap="round" stroke-linejoin="round" stroke-width="4"/>
      <path id="Path_4030" data-name="Path 4030" d="M-1682.213-1133.16a75.785,75.785,0,0,1-13.176-1.725,27.992,27.992,0,0,0-6.929-1.045,2.323,2.323,0,0,0-1.327.345c-.812.6-.637,1.853-.319,2.813,1.693,5.117,5.007,9.549,6.983,14.563a4.405,4.405,0,0,1,.4,1.677,3.6,3.6,0,0,1-.7,1.893,7.363,7.363,0,0,1-4.228,2.989c-1.616.416-3.331.269-4.961.63a2.216,2.216,0,0,0-.921.38,1.782,1.782,0,0,0-.576,1.03c-.382,1.768.927,3.48.948,5.288a7.563,7.563,0,0,1-.644,2.691l-1.172,3.131" transform="translate(2935.824 1490.67)" fill="none" stroke="#fff" stroke-linecap="round" stroke-linejoin="round" stroke-width="4"/>
    </g>
    <path id="Path_66-2" data-name="Path 66" d="M14.322,28.643A14.322,14.322,0,1,0,0,14.322,14.322,14.322,0,0,0,14.322,28.643Z" transform="translate(1177 295.891)" fill="#fff" opacity="0.15"/>
  </g>
</svg>
