<svg xmlns="http://www.w3.org/2000/svg" width="104.215" height="114.411" viewBox="0 0 104.215 114.411">
  <g id="Group_2347" data-name="Group 2347" transform="translate(-1559 -292.891)">
    <path id="Path_68" data-name="Path 68" d="M23.089,0A23.089,23.089,0,1,1,0,23.089,23.089,23.089,0,0,1,23.089,0Z" transform="translate(1617.038 361.124)" fill="#fff" opacity="0.15"/>
    <g id="Group_2268" data-name="Group 2268" transform="translate(1598.404 314.971)">
      <path id="Path_4035" data-name="Path 4035" d="M-566.272-1415.526s-.238-6.139-8.167-5.893-10.134,3.99-9.9,6.937c.213,2.628,1.8,5.5,7.976,7.048l2.093.441c6.175,1.549,7.763,4.421,7.976,7.048.238,2.947-1.967,6.691-9.9,6.937s-8.167-5.893-8.167-5.893" transform="translate(584.351 1421.427)" fill="none" stroke="#fff" stroke-linecap="round" stroke-linejoin="round" stroke-width="4"/>
    </g>
    <line id="Line_3" data-name="Line 3" y2="36.391" transform="translate(1607.899 310.983)" fill="none" stroke="#fff" stroke-linecap="round" stroke-linejoin="round" stroke-width="4"/>
    <path id="Path_4036" data-name="Path 4036" d="M-697.217-1543.45a31.449,31.449,0,0,1,23.493-10.5,31.528,31.528,0,0,1,31.528,31.528,31.38,31.38,0,0,1-4.937,16.946" transform="translate(2281.168 1851.951)" fill="none" stroke="#fff" stroke-linecap="round" stroke-linejoin="round" stroke-width="4"/>
    <path id="Path_4037" data-name="Path 4037" d="M-743.691-1415.581a31.307,31.307,0,0,1,1.276-2.882" transform="translate(2321.691 1733.813)" fill="none" stroke="#fff" stroke-linecap="round" stroke-linejoin="round" stroke-width="4"/>
    <path id="Path_4038" data-name="Path 4038" d="M-750.951-1325.235a31.427,31.427,0,0,1-9.013-22.07,31.7,31.7,0,0,1,.534-5.809" transform="translate(2335.88 1676.834)" fill="none" stroke="#fff" stroke-linecap="round" stroke-linejoin="round" stroke-width="4"/>
    <path id="Path_4039" data-name="Path 4039" d="M-669.756-1127.294s10.053.911,13.233,0c7.913-2.268,15.024-15.147,18.106-15.916,5.38-1.341,5.38,2.205,5.38,2.205-7.63,18.956-21.7,25.394-21.7,25.394h-28.2" transform="translate(2268.715 1494.072)" fill="none" stroke="#fff" stroke-linecap="round" stroke-linejoin="round" stroke-width="4"/>
    <path id="Path_4040" data-name="Path 4040" d="M-750.4-1098.393c.775-1.013,6.249-8.275,12.066-8.668s10.049,4.019,13.625,4.078,9.6-1.788,12.22-1.311,5.728,3.353,2.9,5.4" transform="translate(2327.539 1462.31)" fill="none" stroke="#fff" stroke-linecap="round" stroke-linejoin="round" stroke-width="4"/>
    <rect id="Rectangle_140" data-name="Rectangle 140" width="11.237" height="29.224" transform="translate(1564 363.659) rotate(-30)" fill="none" stroke="#fff" stroke-linecap="round" stroke-linejoin="round" stroke-width="4"/>
    <path id="Path_68-2" data-name="Path 68" d="M14.322,28.643A14.322,14.322,0,1,0,0,14.322,14.322,14.322,0,0,0,14.322,28.643Z" transform="translate(1559 292.891)" fill="#fff" opacity="0.15"/>
  </g>
</svg>
