<svg xmlns="http://www.w3.org/2000/svg" width="111.088" height="111.411" viewBox="0 0 111.088 111.411">
  <g id="Group_2344" data-name="Group 2344" transform="translate(-794 -295.891)">
    <circle id="Ellipse_6" data-name="Ellipse 6" cx="23.089" cy="23.089" r="23.089" transform="translate(858.911 361.124)" fill="#fff" opacity="0.15"/>
    <g id="Group_2341" data-name="Group 2341">
      <path id="Path_4031" data-name="Path 4031" d="M-3550.509-1037.291v19.726l15.942-8.388,15.942,8.388v-25.785l-8.509-3.427-7.433,9.486-7.433-9.486-8.509,3.427" transform="translate(4371.784 1409.725)" fill="none" stroke="#fff" stroke-linecap="round" stroke-linejoin="round" stroke-width="4"/>
      <path id="Path_4032" data-name="Path 4032" d="M-3526.588-1504.464l-1.948-4.838,9.486-7.433-9.486-7.433,4.5-11.18-11.939-1.681-1.681-11.939-11.181,4.5-7.434-9.486-7.433,9.486-11.18-4.5-.515,3.658" transform="translate(4393.483 1851.951)" fill="none" stroke="#fff" stroke-linecap="round" stroke-linejoin="round" stroke-width="4"/>
      <line id="Line_2" data-name="Line 2" y1="0.615" x2="4.369" transform="translate(865.081 353.83)" fill="none" stroke="#fff" stroke-linecap="round" stroke-linejoin="round" stroke-width="4"/>
      <path id="Path_4033" data-name="Path 4033" d="M-3699.461-1436.235l-.26,1.847-11.939,1.681,4.5,11.18-9.486,7.433,9.486,7.433-4.5,11.18,11.939,1.681,1.681,11.939,2.672-1.076,8.509-3.427,7.433,9.486,7.433-9.486,8.509,3.427,2.671,1.076,1.681-11.939,2.3-.323" transform="translate(4516.643 1749.31)" fill="none" stroke="#fff" stroke-linecap="round" stroke-linejoin="round" stroke-width="4"/>
      <path id="Path_4034" data-name="Path 4034" d="M-3474.668-1335.309l-16.936,17.786-7.937-8.568" transform="translate(4327.343 1661.308)" fill="none" stroke="#fff" stroke-linecap="round" stroke-linejoin="round" stroke-width="4"/>
    </g>
    <circle id="Ellipse_6-2" data-name="Ellipse 6" cx="14.322" cy="14.322" r="14.322" transform="translate(794 295.891)" fill="#fff" opacity="0.15"/>
  </g>
</svg>
